<svg xmlns="http://www.w3.org/2000/svg" viewBox="0 0 384 512" width="24" height="32">
	<style>
		tspan { white-space:pre }
		.shp0 { fill: #000000 } 
	</style>
	<path id="Layer" fill-rule="evenodd" class="shp0" d="M384 32L349.1 427.8L192 480L34.9 427.8L0 32L384 32ZM70.9 112L76.7 159.3L199.6 159.3L193.1 162L81 208.7L84.6 255L84.8 254.9L84.8 255L251.1 255.5L247.4 317.1L192.7 332.5L140.1 319.2L136.9 280.9L88 280.9L94.4 354.8L193.2 384L291.4 355.3L304.2 208.7L192.7 208.7L193 208.6L308.3 159.3L313.1 112L70.9 112Z" />
</svg>