<svg xmlns="http://www.w3.org/2000/svg" viewBox="0 0 640 512" width="40" height="32">
	<style>
		tspan { white-space:pre }
		.shp0 { fill: #000000 } 
	</style>
	<path id="Layer" fill-rule="evenodd" class="shp0" d="M310.2 450.4L291 439C288.1 437.4 289.5 436.8 290.5 436.5C294.3 435.2 295.1 434.9 299.2 432.5C299.6 432.3 300.2 432.4 300.6 432.6L315.4 441.4C315.9 441.7 316.7 441.7 317.2 441.4L375 408C375.5 407.7 375.9 407.1 375.9 406.4L375.9 339.7C375.9 339 375.6 338.4 375 338.1L317.2 304.8C316.7 304.5 316 304.5 315.4 304.8L257.6 338.1C257 338.4 256.7 339.1 256.7 339.7L256.7 406.4C256.7 407 257.1 407.6 257.6 407.9L273.4 417C282 421.3 287.3 416.2 287.3 411.2L287.3 345.3C287.3 344.4 288 343.6 289 343.6L296.3 343.6C297.2 343.6 298 344.3 298 345.3L298 411.2C298 422.7 291.8 429.2 280.9 429.2C277.6 429.2 274.9 429.2 267.6 425.6L252.4 416.9C248.7 414.7 246.3 410.7 246.3 406.4L246.3 339.7C246.3 335.4 248.6 331.3 252.4 329.2L310.2 295.8C313.9 293.7 318.7 293.7 322.3 295.8L380.1 329.2C383.8 331.4 386.2 335.4 386.2 339.7L386.2 406.4C386.2 410.7 383.9 414.8 380.1 416.9L322.3 450.3C320.6 451.4 318.5 452 316.3 452C314.2 452 312.1 451.4 310.2 450.4ZM363 386.2C363 398.8 352.5 406 334 406C308.7 406 303.4 394.4 303.4 384.7C303.4 383.7 304.2 383 305.1 383L312.6 383C313.5 383 314.2 383.6 314.3 384.4C315.4 392 318.8 395.8 334.1 395.8C346.3 395.8 351.5 393.1 351.5 386.6C351.5 382.9 350 380.2 331.1 378.3C315.3 376.7 305.5 373.3 305.5 360.6C305.5 349 315.3 342 331.8 342C350.3 342 359.4 348.4 360.6 362.2C360.7 362.7 360.5 363.1 360.2 363.5C359.9 363.8 359.5 364 359 364L351.5 364C350.7 364 350.1 363.5 349.9 362.7C348.1 354.7 343.7 352.1 331.8 352.1C318.5 352.1 317 356.7 317 360.2C317 364.4 318.8 365.6 336.8 368C354.6 370.4 363 373.7 363 386.2ZM417.5 336.1C417.5 342.2 412.5 347.2 406.4 347.2C400.3 347.2 395.3 342.2 395.3 336.1C395.3 329.8 400.5 325 406.4 325C412.4 324.9 417.5 329.8 417.5 336.1ZM415.7 336.1C415.7 330.9 411.5 326.8 406.3 326.8C401.2 326.8 397 330.9 397 336.1C397 341.3 401.2 345.5 406.3 345.5C411.5 345.4 415.7 341.2 415.7 336.1ZM408.6 342.3C408.5 341.7 408.1 338.5 408.1 338.4C407.9 337.7 407.7 337.3 406.8 337.3L404.6 337.3L404.6 342.3L402.2 342.3L402.2 329.8L406.5 329.8C408 329.8 410.9 329.8 410.9 333.1C410.9 335.4 409.4 335.9 408.5 336.2C410.2 336.3 410.3 337.4 410.6 339C410.7 340 410.9 341.7 411.2 342.3L408.6 342.3ZM406.6 331.8L404.6 331.8L404.6 335.3L406.5 335.3C408.1 335.3 408.4 334.2 408.4 333.5C408.4 331.8 407.2 331.8 406.6 331.8ZM137.1 286C137.1 287.3 136.4 288.6 135.3 289.2C134.2 289.9 132.7 289.9 131.6 289.2L95.2 268.3C92.9 267 91.5 264.5 91.5 261.9L91.5 217.5C91.5 214.9 90.1 212.4 87.8 211.1L72.3 202.2C71.2 201.5 69.9 201.2 68.6 201.2C67.3 201.2 66.1 201.5 64.9 202.2L49.4 211.1C47.1 212.4 45.7 214.9 45.7 217.5L45.7 261.9C45.7 264.5 44.3 266.9 42 268.3L5.6 289.2C4.4 289.9 3 289.9 1.9 289.2C0.8 288.5 0.1 287.3 0.1 286L0 191C0 188.4 1.4 185.9 3.7 184.6L64.9 149.3C66 148.7 67.1 148.3 68.3 148.3L68.9 148.3C70.1 148.4 71.3 148.7 72.3 149.3L133.6 184.6C135.9 185.9 137.3 188.3 137.3 191L137.1 286ZM472.5 263.7C472.5 266.3 471.1 268.8 468.8 270.1L407.5 305.5C405.2 306.8 402.4 306.8 400.1 305.5L338.8 270.1C336.5 268.8 335.1 266.3 335.1 263.7L335.1 192.9C335.1 190.3 336.5 187.8 338.8 186.5L400.1 151.1C402.4 149.8 405.2 149.8 407.5 151.1L422.8 159.9C424.5 160.9 426.7 159.6 426.7 157.7L426.7 63.7C426.7 60.9 429.7 59.1 432.2 60.5L468.7 80.9C471 82.1 472.5 84.6 472.5 87.3L472.5 263.7ZM426.5 216.2C426.5 215.5 426.1 214.9 425.6 214.6L404.6 202.4C404 202.1 403.3 202.1 402.7 202.4L381.7 214.6C381.1 214.9 380.8 215.5 380.8 216.2L380.8 240.5C380.8 241.2 381.2 241.8 381.7 242.1L402.7 254.2C403.3 254.5 404 254.5 404.5 254.2L425.5 242.1C426.1 241.8 426.4 241.2 426.4 240.5L426.4 216.2L426.5 216.2ZM636.3 215.5L599.6 236.8C597.1 238.2 594 236.4 594 233.6L594 216.2C594 214.9 593.2 213.7 592.1 213L572.9 201.9C571.8 201.2 570.3 201.2 569.2 201.9L550 213C548.8 213.7 548.1 214.9 548.1 216.2L548.1 238.4C548.1 239.7 548.8 240.9 550 241.6L611.7 277C614.2 278.4 614.2 282 611.7 283.4L574.9 303.9C572.6 305.2 569.8 305.2 567.6 303.9L506.7 269.2C504.4 267.9 503 265.5 503 262.8L503 192C503 189.4 504.4 186.9 506.7 185.6L568 150.2C570.3 148.9 573.1 148.9 575.4 150.2L636.3 185.6C638.6 186.9 640 189.4 640 192L640 209.1C640 211.7 638.6 214.2 636.3 215.5ZM570.8 212.2C571.2 211.9 571.8 211.9 572.2 212.2L584 219C584.4 219.2 584.7 219.7 584.7 220.2L584.7 233.8C584.7 234.3 584.4 234.7 584 235L572.2 241.8C571.8 242.1 571.2 242.1 570.8 241.8L559 235C558.6 234.8 558.3 234.3 558.3 233.8L558.3 220.2C558.3 219.7 558.6 219.3 559 219L570.8 212.2ZM304.6 264.2C304.1 266.2 302.8 267.9 301 268.9L240 304.1C237.8 305.4 235 305.5 232.6 304.1L171.4 268.9C169.3 267.7 167.4 265.3 167.4 262.5L167.4 192.1C167.4 189.4 169 187 171.3 185.7L232.4 150.5C234.8 149.1 237.7 149.3 239.8 150.5L300.9 185.7C303.2 187 304.8 189.5 304.8 192.1L304.8 262.5C304.8 263.1 304.7 263.7 304.6 264.2ZM230.5 137.6L230.8 138.1L229.7 138.1L230.5 137.6ZM306.3 268L306.3 267.1L306.7 267.8L306.3 268Z" />
</svg>