<svg xmlns="http://www.w3.org/2000/svg" viewBox="0 0 512 512" width="32" height="32">
	<style>
		tspan { white-space:pre }
		.shp0 { fill: #000000 } 
	</style>
	<path id="Layer" fill-rule="evenodd" class="shp0" d="M418.2 177.2C472.6 195.9 512 225.3 512 255.6C512 287.3 470.2 318.2 412.5 337.3C409.4 338.3 406.3 339.3 403.1 340.2C404.2 344.8 405.2 349.3 406.1 353.7C417.5 411.3 408.7 458.6 381.7 474.2C355.6 489.3 313.3 474.4 270.5 437.6C265.9 433.6 261.3 429.5 256.9 425.2C253.4 428.6 249.9 431.8 246.4 434.9C202.2 473.6 156.8 489.6 129.8 474C103.6 458.9 95.4 414.9 105.9 359.4C107.1 353.3 108.4 347.4 109.9 341.4C105.3 340.1 100.8 338.6 96.3 337.1C40.8 318.1 0 286.8 0 255.6C0 225.4 38.3 196.2 91.7 177.7C97.6 175.6 103.9 173.6 110.3 171.8C108.9 166.2 107.7 160.7 106.6 155.1C95.6 98.7 103.4 53.6 129.6 38.4C156.9 22.5 202.5 39.5 248 79.9C250.8 82.4 253.6 85 256.3 87.6C260.3 83.7 264.5 79.8 268.8 76.1C312.2 38.3 355.1 22.6 381.4 37.7C408.7 53.5 416.8 101.4 404.5 161C403.7 164.7 402.9 168.4 402 172.1C407.4 173.7 412.8 175.4 418.2 177.2ZM282.9 92.3C278.9 95.8 275.1 99.3 271.2 103C286.6 119.7 300.8 137.5 313.8 156.1C336.4 158.1 358.9 161.7 381.1 166.7C382 163.4 382.7 160.1 383.4 156.7C394 105.2 387.5 66 370.6 56.3C354.8 47.2 320.1 59.9 282.9 92.3ZM167.2 307.5C162.2 298.9 157.5 290.2 152.9 281.4C146.5 296.6 141 311.5 136.6 325.9C151.9 329.2 167.4 331.7 183 333.4C177.5 324.9 172.3 316.2 167.2 307.5ZM152.9 230.8C157.4 222 162.2 213.3 167.1 204.8C172 196.2 177.2 187.7 182.5 179.4C166.6 181.4 151.3 184 136.9 187.2C141.3 201.3 146.6 215.9 152.9 230.8ZM185.8 296.7C193.5 310 201.7 323 210.4 335.7C225.1 336.6 240.3 337.1 256 337.1C271.7 337.1 287.2 336.6 302.1 335.5C310.6 322.7 318.7 309.8 326.3 296.5C334 283.1 341.2 269.5 347.9 255.7C341.1 242 333.9 228.5 326.2 215.3C318.5 202.1 310.4 189.2 301.9 176.6C287 175.5 271.6 174.9 256 174.9C240.4 174.9 225.1 175.5 210.1 176.6C201.5 189.3 193.3 202.2 185.7 215.5C178.1 228.8 170.9 242.3 164.3 256.1C171 269.9 178.1 283.4 185.8 296.7ZM329.4 332.9C345.2 331.1 360.9 328.4 376.4 324.9C371.5 309.8 365.9 295.1 359.5 280.6C354.8 289.6 350 298.5 344.9 307.3C339.9 315.9 334.8 324.5 329.4 332.9ZM359.3 230.8C365.4 216.6 370.8 202.2 375.4 187.4C361 184.1 345.6 181.4 329.5 179.4C334.8 187.7 339.9 196.1 344.8 204.6C349.8 213.2 354.6 222 359.3 230.8ZM226.3 154.1C246.1 153.2 266 153.2 285.8 154.1C276.6 141.7 266.7 129.7 256.2 118.3C246.2 129.2 236.1 141.2 226.3 154.1ZM140.2 57C124.4 66.1 118.2 102.6 127.6 151C128.7 156.2 129.8 161.4 131.1 166.5C153.3 161.6 175.7 158.1 198.3 156.1C211.4 137.5 225.7 119.7 241.2 103C238.6 100.6 236.1 98.2 233.6 96C194.3 61.2 157 47.2 140.2 57ZM115.7 320.6C122.6 298.6 130.9 277 140.5 256.1C131 235.5 122.8 214.2 116 192.5C110.2 194.2 104.4 196 98.7 198C53.1 213.9 21.5 237.3 21.5 255.6C23.4 267.7 30.2 278.5 40.3 285.5C57.8 299.4 82 310 103.3 316.7C107.4 318.1 111.5 319.4 115.7 320.6ZM241.9 409.7C226.4 392.9 211.9 375 198.7 356.3C175.8 354.6 153.2 351.3 130.8 346.5C129.4 352 128.2 357.6 127.1 363.2C118.1 410.7 124.7 446 140.6 455.2C152 459.7 164.8 459.2 175.9 453.9C196.7 445.7 215.8 433.7 232.3 418.6C235.5 415.8 238.7 412.8 241.9 409.7ZM256.8 394.3C267.3 382.7 277.2 370.6 286.4 357.9C276.4 358.4 266.3 358.6 256 358.6C246 358.6 236.1 358.4 226.5 358C236.4 371.1 246.6 383.3 256.8 394.3ZM387.5 424.3C390.7 402.1 389.9 379.6 385 358C384.2 354 383.3 349.9 382.3 345.8C359.8 350.9 337 354.4 314.1 356.3C301.3 375.1 287.2 393 271.9 409.9C276.2 413.9 280.4 417.8 284.6 421.4C321.2 452.8 355.1 464.8 371 455.6C380.6 447.9 386.6 436.5 387.5 424.3ZM490.5 255.4C490.5 237.2 457.8 213.4 411.2 197.4C406.4 195.8 401.4 194.2 396.2 192.7C389.4 214.2 381.3 235.2 371.7 255.6C381.6 276.3 390.2 297.6 397.2 319.4C400.1 318.6 402.9 317.7 405.7 316.8C455.6 300.3 490.5 275 490.5 255.4ZM210.2 256C210.2 230.7 230.7 210.2 256 210.2C281.3 210.2 301.8 230.7 301.8 256C301.8 281.3 281.3 301.8 256 301.8C230.7 301.8 210.2 281.3 210.2 256Z" />
</svg>