<svg xmlns="http://www.w3.org/2000/svg" viewBox="0 0 32 37" width="28" height="32">
	<style>
		tspan { white-space:pre }
		.shp0 { fill: #000000 } 
	</style>
	<path id="Layer" fill-rule="evenodd" class="shp0" d="M32 2.31L32 34.69L0 34.69L0 2.31L32 2.31ZM17.41 27.56L17.41 17.18L14.41 17.18L14.41 27.52C14.41 29.04 13.78 29.43 12.79 29.43C11.76 29.43 11.33 28.72 10.86 27.87L8.41 29.37C9.12 30.89 10.51 32.15 12.92 32.15C15.59 32.15 17.41 30.71 17.41 27.56ZM24.53 32.15C27.38 32.15 29.51 30.65 29.51 27.92C29.51 25.37 28.07 24.24 25.51 23.13L24.76 22.81C23.47 22.24 22.91 21.87 22.91 20.96C22.91 20.22 23.47 19.66 24.35 19.66C25.21 19.66 25.77 20.02 26.29 20.96L28.63 19.44C27.64 17.68 26.27 17 24.36 17C21.68 17 19.96 18.74 19.96 21.02C19.96 23.5 21.39 24.68 23.56 25.61L24.31 25.94C25.69 26.55 26.51 26.92 26.51 27.96C26.51 28.83 25.71 29.46 24.46 29.46C22.99 29.46 22.14 28.67 21.5 27.61L19.05 29.04C19.93 30.81 21.74 32.15 24.53 32.15Z" />
</svg>